<svg width="130" height="106" viewBox="0 0 130 106" fill="none" xmlns="http://www.w3.org/2000/svg">
<path d="M1.58792 62.8099C2.38294 62.8099 3.02744 62.1546 3.02744 61.3462C3.02744 60.5378 2.38294 59.8824 1.58792 59.8824C0.792891 59.8824 0.148438 60.5378 0.148438 61.3462C0.148438 62.1546 0.792891 62.8099 1.58792 62.8099Z" fill="#1BBF00"/>
<path d="M15.7052 62.8099C16.5002 62.8099 17.1447 62.1546 17.1447 61.3462C17.1447 60.5378 16.5002 59.8824 15.7052 59.8824C14.9101 59.8824 14.2656 60.5378 14.2656 61.3462C14.2656 62.1546 14.9101 62.8099 15.7052 62.8099Z" fill="#1BBF00"/>
<path d="M29.8056 62.8099C30.6006 62.8099 31.2451 62.1546 31.2451 61.3462C31.2451 60.5378 30.6006 59.8824 29.8056 59.8824C29.0106 59.8824 28.3661 60.5378 28.3661 61.3462C28.3661 62.1546 29.0106 62.8099 29.8056 62.8099Z" fill="#1BBF00"/>
<path d="M43.9229 62.8099C44.718 62.8099 45.3625 62.1546 45.3625 61.3462C45.3625 60.5378 44.718 59.8824 43.9229 59.8824C43.1279 59.8824 42.4834 60.5378 42.4834 61.3462C42.4834 62.1546 43.1279 62.8099 43.9229 62.8099Z" fill="#1BBF00"/>
<path d="M58.0243 62.8099C58.8194 62.8099 59.4639 62.1546 59.4639 61.3462C59.4639 60.5378 58.8194 59.8824 58.0243 59.8824C57.2293 59.8824 56.5849 60.5378 56.5849 61.3462C56.5849 62.1546 57.2293 62.8099 58.0243 62.8099Z" fill="#1BBF00"/>
<path d="M72.125 62.8099C72.92 62.8099 73.5645 62.1546 73.5645 61.3462C73.5645 60.5378 72.92 59.8824 72.125 59.8824C71.33 59.8824 70.6855 60.5378 70.6855 61.3462C70.6855 62.1546 71.33 62.8099 72.125 62.8099Z" fill="#1BBF00"/>
<path d="M86.2412 62.8099C87.0363 62.8099 87.6808 62.1546 87.6808 61.3462C87.6808 60.5378 87.0363 59.8824 86.2412 59.8824C85.4462 59.8824 84.8018 60.5378 84.8018 61.3462C84.8018 62.1546 85.4462 62.8099 86.2412 62.8099Z" fill="#1BBF00"/>
<path d="M100.343 62.8099C101.138 62.8099 101.782 62.1546 101.782 61.3462C101.782 60.5378 101.138 59.8824 100.343 59.8824C99.5478 59.8824 98.9033 60.5378 98.9033 61.3462C98.9033 62.1546 99.5478 62.8099 100.343 62.8099Z" fill="#1BBF00"/>
<path d="M114.459 62.8099C115.254 62.8099 115.899 62.1546 115.899 61.3462C115.899 60.5378 115.254 59.8824 114.459 59.8824C113.664 59.8824 113.02 60.5378 113.02 61.3462C113.02 62.1546 113.664 62.8099 114.459 62.8099Z" fill="#1BBF00"/>
<path d="M128.56 62.8099C129.355 62.8099 129.999 62.1546 129.999 61.3462C129.999 60.5378 129.355 59.8824 128.56 59.8824C127.765 59.8824 127.12 60.5378 127.12 61.3462C127.12 62.1546 127.765 62.8099 128.56 62.8099Z" fill="#1BBF00"/>
<path d="M1.58792 77.1648C2.38294 77.1648 3.02744 76.5094 3.02744 75.701C3.02744 74.8926 2.38294 74.2373 1.58792 74.2373C0.792891 74.2373 0.148438 74.8926 0.148438 75.701C0.148438 76.5094 0.792891 77.1648 1.58792 77.1648Z" fill="#1BBF00"/>
<path d="M15.7052 77.1648C16.5002 77.1648 17.1447 76.5095 17.1447 75.701C17.1447 74.8926 16.5002 74.2373 15.7052 74.2373C14.9101 74.2373 14.2656 74.8926 14.2656 75.701C14.2656 76.5095 14.9101 77.1648 15.7052 77.1648Z" fill="#1BBF00"/>
<path d="M29.8056 77.1648C30.6006 77.1648 31.2451 76.5094 31.2451 75.701C31.2451 74.8926 30.6006 74.2373 29.8056 74.2373C29.0106 74.2373 28.3661 74.8926 28.3661 75.701C28.3661 76.5094 29.0106 77.1648 29.8056 77.1648Z" fill="#1BBF00"/>
<path d="M43.9229 77.1648C44.718 77.1648 45.3625 76.5095 45.3625 75.701C45.3625 74.8926 44.718 74.2373 43.9229 74.2373C43.1279 74.2373 42.4834 74.8926 42.4834 75.701C42.4834 76.5095 43.1279 77.1648 43.9229 77.1648Z" fill="#1BBF00"/>
<path d="M58.0243 77.1648C58.8194 77.1648 59.4639 76.5094 59.4639 75.701C59.4639 74.8926 58.8194 74.2373 58.0243 74.2373C57.2293 74.2373 56.5849 74.8926 56.5849 75.701C56.5849 76.5094 57.2293 77.1648 58.0243 77.1648Z" fill="#1BBF00"/>
<path d="M72.125 77.1648C72.92 77.1648 73.5645 76.5094 73.5645 75.701C73.5645 74.8926 72.92 74.2373 72.125 74.2373C71.33 74.2373 70.6855 74.8926 70.6855 75.701C70.6855 76.5094 71.33 77.1648 72.125 77.1648Z" fill="#1BBF00"/>
<path d="M86.2412 77.1648C87.0363 77.1648 87.6808 76.5095 87.6808 75.701C87.6808 74.8926 87.0363 74.2373 86.2412 74.2373C85.4462 74.2373 84.8018 74.8926 84.8018 75.701C84.8018 76.5095 85.4462 77.1648 86.2412 77.1648Z" fill="#1BBF00"/>
<path d="M100.343 77.1648C101.138 77.1648 101.782 76.5095 101.782 75.701C101.782 74.8926 101.138 74.2373 100.343 74.2373C99.5478 74.2373 98.9033 74.8926 98.9033 75.701C98.9033 76.5095 99.5478 77.1648 100.343 77.1648Z" fill="#1BBF00"/>
<path d="M114.459 77.1648C115.254 77.1648 115.899 76.5095 115.899 75.701C115.899 74.8926 115.254 74.2373 114.459 74.2373C113.664 74.2373 113.02 74.8926 113.02 75.701C113.02 76.5095 113.664 77.1648 114.459 77.1648Z" fill="#1BBF00"/>
<path d="M128.56 77.1648C129.355 77.1648 129.999 76.5095 129.999 75.701C129.999 74.8926 129.355 74.2373 128.56 74.2373C127.765 74.2373 127.12 74.8926 127.12 75.701C127.12 76.5095 127.765 77.1648 128.56 77.1648Z" fill="#1BBF00"/>
<path d="M1.58792 91.5035C2.38294 91.5035 3.02744 90.8482 3.02744 90.0397C3.02744 89.2313 2.38294 88.5759 1.58792 88.5759C0.792891 88.5759 0.148438 89.2313 0.148438 90.0397C0.148438 90.8482 0.792891 91.5035 1.58792 91.5035Z" fill="#1BBF00"/>
<path d="M15.7052 91.5035C16.5002 91.5035 17.1447 90.8482 17.1447 90.0398C17.1447 89.2313 16.5002 88.576 15.7052 88.576C14.9101 88.576 14.2656 89.2313 14.2656 90.0398C14.2656 90.8482 14.9101 91.5035 15.7052 91.5035Z" fill="#1BBF00"/>
<path d="M29.8056 91.5035C30.6006 91.5035 31.2451 90.8482 31.2451 90.0397C31.2451 89.2313 30.6006 88.5759 29.8056 88.5759C29.0106 88.5759 28.3661 89.2313 28.3661 90.0397C28.3661 90.8482 29.0106 91.5035 29.8056 91.5035Z" fill="#1BBF00"/>
<path d="M43.9229 91.5035C44.718 91.5035 45.3625 90.8482 45.3625 90.0398C45.3625 89.2313 44.718 88.576 43.9229 88.576C43.1279 88.576 42.4834 89.2313 42.4834 90.0398C42.4834 90.8482 43.1279 91.5035 43.9229 91.5035Z" fill="#1BBF00"/>
<path d="M58.0243 91.5035C58.8194 91.5035 59.4639 90.8482 59.4639 90.0397C59.4639 89.2313 58.8194 88.5759 58.0243 88.5759C57.2293 88.5759 56.5849 89.2313 56.5849 90.0397C56.5849 90.8482 57.2293 91.5035 58.0243 91.5035Z" fill="#1BBF00"/>
<path d="M72.125 91.5035C72.92 91.5035 73.5645 90.8482 73.5645 90.0397C73.5645 89.2313 72.92 88.5759 72.125 88.5759C71.33 88.5759 70.6855 89.2313 70.6855 90.0397C70.6855 90.8482 71.33 91.5035 72.125 91.5035Z" fill="#1BBF00"/>
<path d="M86.2412 91.5035C87.0363 91.5035 87.6808 90.8482 87.6808 90.0398C87.6808 89.2313 87.0363 88.576 86.2412 88.576C85.4462 88.576 84.8018 89.2313 84.8018 90.0398C84.8018 90.8482 85.4462 91.5035 86.2412 91.5035Z" fill="#1BBF00"/>
<path d="M100.343 91.5035C101.138 91.5035 101.782 90.8482 101.782 90.0398C101.782 89.2313 101.138 88.576 100.343 88.576C99.5478 88.576 98.9033 89.2313 98.9033 90.0398C98.9033 90.8482 99.5478 91.5035 100.343 91.5035Z" fill="#1BBF00"/>
<path d="M114.459 91.5035C115.254 91.5035 115.899 90.8482 115.899 90.0398C115.899 89.2313 115.254 88.576 114.459 88.576C113.664 88.576 113.02 89.2313 113.02 90.0398C113.02 90.8482 113.664 91.5035 114.459 91.5035Z" fill="#1BBF00"/>
<path d="M128.56 91.5035C129.355 91.5035 129.999 90.8482 129.999 90.0398C129.999 89.2313 129.355 88.576 128.56 88.576C127.765 88.576 127.12 89.2313 127.12 90.0398C127.12 90.8482 127.765 91.5035 128.56 91.5035Z" fill="#1BBF00"/>
<path d="M1.58792 105.842C2.38294 105.842 3.02744 105.187 3.02744 104.378C3.02744 103.57 2.38294 102.915 1.58792 102.915C0.792891 102.915 0.148438 103.57 0.148438 104.378C0.148438 105.187 0.792891 105.842 1.58792 105.842Z" fill="#1BBF00"/>
<path d="M15.7052 105.842C16.5002 105.842 17.1447 105.187 17.1447 104.378C17.1447 103.57 16.5002 102.915 15.7052 102.915C14.9101 102.915 14.2656 103.57 14.2656 104.378C14.2656 105.187 14.9101 105.842 15.7052 105.842Z" fill="#1BBF00"/>
<path d="M29.8056 105.842C30.6006 105.842 31.2451 105.187 31.2451 104.378C31.2451 103.57 30.6006 102.915 29.8056 102.915C29.0106 102.915 28.3661 103.57 28.3661 104.378C28.3661 105.187 29.0106 105.842 29.8056 105.842Z" fill="#1BBF00"/>
<path d="M43.9229 105.842C44.718 105.842 45.3625 105.187 45.3625 104.378C45.3625 103.57 44.718 102.915 43.9229 102.915C43.1279 102.915 42.4834 103.57 42.4834 104.378C42.4834 105.187 43.1279 105.842 43.9229 105.842Z" fill="#1BBF00"/>
<path d="M58.0243 105.842C58.8194 105.842 59.4639 105.187 59.4639 104.378C59.4639 103.57 58.8194 102.915 58.0243 102.915C57.2293 102.915 56.5849 103.57 56.5849 104.378C56.5849 105.187 57.2293 105.842 58.0243 105.842Z" fill="#1BBF00"/>
<path d="M72.125 105.842C72.92 105.842 73.5645 105.187 73.5645 104.378C73.5645 103.57 72.92 102.915 72.125 102.915C71.33 102.915 70.6855 103.57 70.6855 104.378C70.6855 105.187 71.33 105.842 72.125 105.842Z" fill="#1BBF00"/>
<path d="M86.2412 105.842C87.0363 105.842 87.6808 105.187 87.6808 104.378C87.6808 103.57 87.0363 102.915 86.2412 102.915C85.4462 102.915 84.8018 103.57 84.8018 104.378C84.8018 105.187 85.4462 105.842 86.2412 105.842Z" fill="#1BBF00"/>
<path d="M100.343 105.842C101.138 105.842 101.782 105.187 101.782 104.378C101.782 103.57 101.138 102.915 100.343 102.915C99.5478 102.915 98.9033 103.57 98.9033 104.378C98.9033 105.187 99.5478 105.842 100.343 105.842Z" fill="#1BBF00"/>
<path d="M114.459 105.842C115.254 105.842 115.899 105.187 115.899 104.378C115.899 103.57 115.254 102.915 114.459 102.915C113.664 102.915 113.02 103.57 113.02 104.378C113.02 105.187 113.664 105.842 114.459 105.842Z" fill="#1BBF00"/>
<path d="M128.56 105.842C129.355 105.842 129.999 105.187 129.999 104.378C129.999 103.57 129.355 102.915 128.56 102.915C127.765 102.915 127.12 103.57 127.12 104.378C127.12 105.187 127.765 105.842 128.56 105.842Z" fill="#1BBF00"/>
<path d="M1.43948 2.92755C2.2345 2.92755 2.87901 2.27223 2.87901 1.4638C2.87901 0.655369 2.2345 0 1.43948 0C0.644453 0 0 0.655369 0 1.4638C0 2.27223 0.644453 2.92755 1.43948 2.92755Z" fill="#1BBF00"/>
<path d="M15.5567 2.92752C16.3517 2.92752 16.9962 2.2722 16.9962 1.46377C16.9962 0.655339 16.3517 -3.05176e-05 15.5567 -3.05176e-05C14.7617 -3.05176e-05 14.1172 0.655339 14.1172 1.46377C14.1172 2.2722 14.7617 2.92752 15.5567 2.92752Z" fill="#1BBF00"/>
<path d="M29.6572 2.92751C30.4522 2.92751 31.0967 2.27219 31.0967 1.46376C31.0967 0.655331 30.4522 -3.8147e-05 29.6572 -3.8147e-05C28.8621 -3.8147e-05 28.2177 0.655331 28.2177 1.46376C28.2177 2.27219 28.8621 2.92751 29.6572 2.92751Z" fill="#1BBF00"/>
<path d="M43.7745 2.92752C44.5695 2.92752 45.214 2.2722 45.214 1.46377C45.214 0.655339 44.5695 -3.05176e-05 43.7745 -3.05176e-05C42.9795 -3.05176e-05 42.335 0.655339 42.335 1.46377C42.335 2.2722 42.9795 2.92752 43.7745 2.92752Z" fill="#1BBF00"/>
<path d="M57.8759 2.92751C58.6709 2.92751 59.3154 2.27219 59.3154 1.46376C59.3154 0.655331 58.6709 -3.8147e-05 57.8759 -3.8147e-05C57.0809 -3.8147e-05 56.4364 0.655331 56.4364 1.46376C56.4364 2.27219 57.0809 2.92751 57.8759 2.92751Z" fill="#1BBF00"/>
<path d="M71.9766 2.92751C72.7716 2.92751 73.4161 2.27219 73.4161 1.46376C73.4161 0.655331 72.7716 -3.8147e-05 71.9766 -3.8147e-05C71.1816 -3.8147e-05 70.537 0.655331 70.537 1.46376C70.537 2.27219 71.1816 2.92751 71.9766 2.92751Z" fill="#1BBF00"/>
<path d="M86.0928 2.92752C86.8878 2.92752 87.5323 2.2722 87.5323 1.46377C87.5323 0.655339 86.8878 -3.05176e-05 86.0928 -3.05176e-05C85.2978 -3.05176e-05 84.6533 0.655339 84.6533 1.46377C84.6533 2.2722 85.2978 2.92752 86.0928 2.92752Z" fill="#1BBF00"/>
<path d="M100.194 2.92752C100.989 2.92752 101.634 2.2722 101.634 1.46377C101.634 0.655339 100.989 -3.05176e-05 100.194 -3.05176e-05C99.3994 -3.05176e-05 98.7549 0.655339 98.7549 1.46377C98.7549 2.2722 99.3994 2.92752 100.194 2.92752Z" fill="#1BBF00"/>
<path d="M114.311 2.92752C115.106 2.92752 115.75 2.2722 115.75 1.46377C115.75 0.655339 115.106 -3.05176e-05 114.311 -3.05176e-05C113.516 -3.05176e-05 112.871 0.655339 112.871 1.46377C112.871 2.2722 113.516 2.92752 114.311 2.92752Z" fill="#1BBF00"/>
<path d="M128.411 2.92752C129.206 2.92752 129.851 2.2722 129.851 1.46377C129.851 0.655339 129.206 -3.05176e-05 128.411 -3.05176e-05C127.616 -3.05176e-05 126.972 0.655339 126.972 1.46377C126.972 2.2722 127.616 2.92752 128.411 2.92752Z" fill="#1BBF00"/>
<path d="M1.43948 17.2824C2.2345 17.2824 2.87901 16.627 2.87901 15.8186C2.87901 15.0102 2.2345 14.3548 1.43948 14.3548C0.644453 14.3548 0 15.0102 0 15.8186C0 16.627 0.644453 17.2824 1.43948 17.2824Z" fill="#1BBF00"/>
<path d="M15.5567 17.2824C16.3517 17.2824 16.9962 16.627 16.9962 15.8186C16.9962 15.0101 16.3517 14.3548 15.5567 14.3548C14.7617 14.3548 14.1172 15.0101 14.1172 15.8186C14.1172 16.627 14.7617 17.2824 15.5567 17.2824Z" fill="#1BBF00"/>
<path d="M29.6572 17.2824C30.4522 17.2824 31.0967 16.627 31.0967 15.8186C31.0967 15.0102 30.4522 14.3548 29.6572 14.3548C28.8621 14.3548 28.2177 15.0102 28.2177 15.8186C28.2177 16.627 28.8621 17.2824 29.6572 17.2824Z" fill="#1BBF00"/>
<path d="M43.7745 17.2824C44.5695 17.2824 45.214 16.627 45.214 15.8186C45.214 15.0101 44.5695 14.3548 43.7745 14.3548C42.9795 14.3548 42.335 15.0101 42.335 15.8186C42.335 16.627 42.9795 17.2824 43.7745 17.2824Z" fill="#1BBF00"/>
<path d="M57.8759 17.2824C58.6709 17.2824 59.3154 16.627 59.3154 15.8186C59.3154 15.0102 58.6709 14.3548 57.8759 14.3548C57.0809 14.3548 56.4364 15.0102 56.4364 15.8186C56.4364 16.627 57.0809 17.2824 57.8759 17.2824Z" fill="#1BBF00"/>
<path d="M71.9766 17.2824C72.7716 17.2824 73.4161 16.627 73.4161 15.8186C73.4161 15.0102 72.7716 14.3548 71.9766 14.3548C71.1816 14.3548 70.537 15.0102 70.537 15.8186C70.537 16.627 71.1816 17.2824 71.9766 17.2824Z" fill="#1BBF00"/>
<path d="M86.0928 17.2824C86.8878 17.2824 87.5323 16.627 87.5323 15.8186C87.5323 15.0101 86.8878 14.3548 86.0928 14.3548C85.2978 14.3548 84.6533 15.0101 84.6533 15.8186C84.6533 16.627 85.2978 17.2824 86.0928 17.2824Z" fill="#1BBF00"/>
<path d="M100.194 17.2824C100.989 17.2824 101.634 16.627 101.634 15.8186C101.634 15.0101 100.989 14.3548 100.194 14.3548C99.3994 14.3548 98.7549 15.0101 98.7549 15.8186C98.7549 16.627 99.3994 17.2824 100.194 17.2824Z" fill="#1BBF00"/>
<path d="M114.311 17.2824C115.106 17.2824 115.75 16.627 115.75 15.8186C115.75 15.0101 115.106 14.3548 114.311 14.3548C113.516 14.3548 112.871 15.0101 112.871 15.8186C112.871 16.627 113.516 17.2824 114.311 17.2824Z" fill="#1BBF00"/>
<path d="M128.411 17.2824C129.206 17.2824 129.851 16.627 129.851 15.8186C129.851 15.0101 129.206 14.3548 128.411 14.3548C127.616 14.3548 126.972 15.0101 126.972 15.8186C126.972 16.627 127.616 17.2824 128.411 17.2824Z" fill="#1BBF00"/>
<path d="M1.43948 31.6211C2.2345 31.6211 2.87901 30.9657 2.87901 30.1573C2.87901 29.3489 2.2345 28.6935 1.43948 28.6935C0.644453 28.6935 0 29.3489 0 30.1573C0 30.9657 0.644453 31.6211 1.43948 31.6211Z" fill="#1BBF00"/>
<path d="M15.5567 31.6211C16.3517 31.6211 16.9962 30.9657 16.9962 30.1573C16.9962 29.3489 16.3517 28.6935 15.5567 28.6935C14.7617 28.6935 14.1172 29.3489 14.1172 30.1573C14.1172 30.9657 14.7617 31.6211 15.5567 31.6211Z" fill="#1BBF00"/>
<path d="M29.6572 31.6211C30.4522 31.6211 31.0967 30.9657 31.0967 30.1573C31.0967 29.3489 30.4522 28.6935 29.6572 28.6935C28.8621 28.6935 28.2177 29.3489 28.2177 30.1573C28.2177 30.9657 28.8621 31.6211 29.6572 31.6211Z" fill="#1BBF00"/>
<path d="M43.7745 31.6211C44.5695 31.6211 45.214 30.9657 45.214 30.1573C45.214 29.3489 44.5695 28.6935 43.7745 28.6935C42.9795 28.6935 42.335 29.3489 42.335 30.1573C42.335 30.9657 42.9795 31.6211 43.7745 31.6211Z" fill="#1BBF00"/>
<path d="M57.8759 31.6211C58.6709 31.6211 59.3154 30.9657 59.3154 30.1573C59.3154 29.3489 58.6709 28.6935 57.8759 28.6935C57.0809 28.6935 56.4364 29.3489 56.4364 30.1573C56.4364 30.9657 57.0809 31.6211 57.8759 31.6211Z" fill="#1BBF00"/>
<path d="M71.9766 31.6211C72.7716 31.6211 73.4161 30.9657 73.4161 30.1573C73.4161 29.3489 72.7716 28.6935 71.9766 28.6935C71.1816 28.6935 70.537 29.3489 70.537 30.1573C70.537 30.9657 71.1816 31.6211 71.9766 31.6211Z" fill="#1BBF00"/>
<path d="M86.0928 31.6211C86.8878 31.6211 87.5323 30.9657 87.5323 30.1573C87.5323 29.3489 86.8878 28.6935 86.0928 28.6935C85.2978 28.6935 84.6533 29.3489 84.6533 30.1573C84.6533 30.9657 85.2978 31.6211 86.0928 31.6211Z" fill="#1BBF00"/>
<path d="M100.194 31.6211C100.989 31.6211 101.634 30.9657 101.634 30.1573C101.634 29.3489 100.989 28.6935 100.194 28.6935C99.3994 28.6935 98.7549 29.3489 98.7549 30.1573C98.7549 30.9657 99.3994 31.6211 100.194 31.6211Z" fill="#1BBF00"/>
<path d="M114.311 31.6211C115.106 31.6211 115.75 30.9657 115.75 30.1573C115.75 29.3489 115.106 28.6935 114.311 28.6935C113.516 28.6935 112.871 29.3489 112.871 30.1573C112.871 30.9657 113.516 31.6211 114.311 31.6211Z" fill="#1BBF00"/>
<path d="M128.411 31.6211C129.206 31.6211 129.851 30.9657 129.851 30.1573C129.851 29.3489 129.206 28.6935 128.411 28.6935C127.616 28.6935 126.972 29.3489 126.972 30.1573C126.972 30.9657 127.616 31.6211 128.411 31.6211Z" fill="#1BBF00"/>
<path d="M1.43948 45.9598C2.2345 45.9598 2.87901 45.3044 2.87901 44.496C2.87901 43.6876 2.2345 43.0322 1.43948 43.0322C0.644453 43.0322 0 43.6876 0 44.496C0 45.3044 0.644453 45.9598 1.43948 45.9598Z" fill="#1BBF00"/>
<path d="M15.5567 45.9598C16.3517 45.9598 16.9962 45.3044 16.9962 44.496C16.9962 43.6876 16.3517 43.0322 15.5567 43.0322C14.7617 43.0322 14.1172 43.6876 14.1172 44.496C14.1172 45.3044 14.7617 45.9598 15.5567 45.9598Z" fill="#1BBF00"/>
<path d="M29.6572 45.9598C30.4522 45.9598 31.0967 45.3044 31.0967 44.496C31.0967 43.6876 30.4522 43.0322 29.6572 43.0322C28.8621 43.0322 28.2177 43.6876 28.2177 44.496C28.2177 45.3044 28.8621 45.9598 29.6572 45.9598Z" fill="#1BBF00"/>
<path d="M43.7745 45.9598C44.5695 45.9598 45.214 45.3044 45.214 44.496C45.214 43.6876 44.5695 43.0322 43.7745 43.0322C42.9795 43.0322 42.335 43.6876 42.335 44.496C42.335 45.3044 42.9795 45.9598 43.7745 45.9598Z" fill="#1BBF00"/>
<path d="M57.8759 45.9598C58.6709 45.9598 59.3154 45.3044 59.3154 44.496C59.3154 43.6876 58.6709 43.0322 57.8759 43.0322C57.0809 43.0322 56.4364 43.6876 56.4364 44.496C56.4364 45.3044 57.0809 45.9598 57.8759 45.9598Z" fill="#1BBF00"/>
<path d="M71.9766 45.9598C72.7716 45.9598 73.4161 45.3044 73.4161 44.496C73.4161 43.6876 72.7716 43.0322 71.9766 43.0322C71.1816 43.0322 70.537 43.6876 70.537 44.496C70.537 45.3044 71.1816 45.9598 71.9766 45.9598Z" fill="#1BBF00"/>
<path d="M86.0928 45.9598C86.8878 45.9598 87.5323 45.3044 87.5323 44.496C87.5323 43.6876 86.8878 43.0322 86.0928 43.0322C85.2978 43.0322 84.6533 43.6876 84.6533 44.496C84.6533 45.3044 85.2978 45.9598 86.0928 45.9598Z" fill="#1BBF00"/>
<path d="M100.194 45.9598C100.989 45.9598 101.634 45.3044 101.634 44.496C101.634 43.6876 100.989 43.0322 100.194 43.0322C99.3994 43.0322 98.7549 43.6876 98.7549 44.496C98.7549 45.3044 99.3994 45.9598 100.194 45.9598Z" fill="#1BBF00"/>
<path d="M114.311 45.9598C115.106 45.9598 115.75 45.3044 115.75 44.496C115.75 43.6876 115.106 43.0322 114.311 43.0322C113.516 43.0322 112.871 43.6876 112.871 44.496C112.871 45.3044 113.516 45.9598 114.311 45.9598Z" fill="#1BBF00"/>
<path d="M128.411 45.9598C129.206 45.9598 129.851 45.3044 129.851 44.496C129.851 43.6876 129.206 43.0322 128.411 43.0322C127.616 43.0322 126.972 43.6876 126.972 44.496C126.972 45.3044 127.616 45.9598 128.411 45.9598Z" fill="#1BBF00"/>
</svg>
